<?xml version="1.0" standalone="no"?><!DOCTYPE svg PUBLIC "-//W3C//DTD SVG 1.1//EN" "http://www.w3.org/Graphics/SVG/1.1/DTD/svg11.dtd"><svg class="icon" width="200px" height="200.00px" viewBox="0 0 1024 1024" version="1.1" xmlns="http://www.w3.org/2000/svg"><path fill="#333333" d="M832 757.333333H355.413333a74.666667 74.666667 0 0 1-73.386666-61.013333L184.746667 170.666667a10.666667 10.666667 0 0 0-10.453334-8.746667H124.586667a32 32 0 0 1 0-64h49.706666a74.666667 74.666667 0 0 1 73.386667 62.08l97.28 524.586667a10.666667 10.666667 0 0 0 10.453333 8.746666H832a32 32 0 0 1 0 64zM903.68 227.84a74.666667 74.666667 0 0 0-56.106667-25.173333H190.506667l82.346666 444.16 512-34.133334a117.546667 117.546667 0 0 0 108.586667-102.613333l27.946667-223.573333a74.666667 74.666667 0 0 0-17.706667-58.666667zM373.333333 853.333333m-64 0a64 64 0 1 0 128 0 64 64 0 1 0-128 0ZM768 853.333333m-64 0a64 64 0 1 0 128 0 64 64 0 1 0-128 0Z" /></svg>