<?xml version="1.0" standalone="no"?><!DOCTYPE svg PUBLIC "-//W3C//DTD SVG 1.1//EN" "http://www.w3.org/Graphics/SVG/1.1/DTD/svg11.dtd"><svg class="icon" width="32px" height="32.00px" viewBox="0 0 1024 1024" version="1.1" xmlns="http://www.w3.org/2000/svg"><path fill="#333333" d="M106.666667 106.666667m85.333333 0l192 0q85.333333 0 85.333333 85.333333l0 192q0 85.333333-85.333333 85.333333l-192 0q-85.333333 0-85.333333-85.333333l0-192q0-85.333333 85.333333-85.333333ZM106.666667 533.333333m85.333333 0l192 0q85.333333 0 85.333333 85.333334l0 192q0 85.333333-85.333333 85.333333l-192 0q-85.333333 0-85.333333-85.333333l0-192q0-85.333333 85.333333-85.333334ZM533.333333 106.666667m85.333334 0l192 0q85.333333 0 85.333333 85.333333l0 192q0 85.333333-85.333333 85.333333l-192 0q-85.333333 0-85.333334-85.333333l0-192q0-85.333333 85.333334-85.333333ZM714.666667 593.706667a120.96 120.96 0 1 1-120.96 120.96 120.96 120.96 0 0 1 120.96-120.96m0-60.373334a181.333333 181.333333 0 1 0 181.333333 181.333334 181.333333 181.333333 0 0 0-181.333333-181.333334zM106.666667 106.666667m85.333333 0l192 0q85.333333 0 85.333333 85.333333l0 192q0 85.333333-85.333333 85.333333l-192 0q-85.333333 0-85.333333-85.333333l0-192q0-85.333333 85.333333-85.333333ZM106.666667 533.333333m85.333333 0l192 0q85.333333 0 85.333333 85.333334l0 192q0 85.333333-85.333333 85.333333l-192 0q-85.333333 0-85.333333-85.333333l0-192q0-85.333333 85.333333-85.333334ZM533.333333 106.666667m85.333334 0l192 0q85.333333 0 85.333333 85.333333l0 192q0 85.333333-85.333333 85.333333l-192 0q-85.333333 0-85.333334-85.333333l0-192q0-85.333333 85.333334-85.333333ZM714.666667 593.706667a120.96 120.96 0 1 1-120.96 120.96 120.96 120.96 0 0 1 120.96-120.96m0-60.373334a181.333333 181.333333 0 1 0 181.333333 181.333334 181.333333 181.333333 0 0 0-181.333333-181.333334zM911.36 943.146667a32 32 0 0 1-22.613333-9.386667l-68.48-68.48a32 32 0 0 1 45.226666-45.226667l68.48 68.48a32 32 0 0 1-22.613333 54.613334z" /></svg>