<?xml version="1.0" standalone="no"?><!DOCTYPE svg PUBLIC "-//W3C//DTD SVG 1.1//EN" "http://www.w3.org/Graphics/SVG/1.1/DTD/svg11.dtd"><svg class="icon" width="200px" height="200.00px" viewBox="0 0 1024 1024" version="1.1" xmlns="http://www.w3.org/2000/svg"><path fill="#d81e06" d="M512.01 320.01m-256 0a256 256 0 1 0 512 0 256 256 0 1 0-512 0ZM884.01 640.01h-744c-6.6 0-12 5.4-12 12v296.16c0 6.6 5.4 12 12 12h744c6.6 0 12-5.4 12-12V652.01c0-6.6-5.4-12-12-12z m-340.06 244c0 6.6-5.4 12-12 12h-40c-6.6 0-12-5.4-12-12v-104c0-6.6 5.4-12 12-12h40c6.6 0 12 5.4 12 12v104z" /></svg>